G04 MADE WITH FRITZING*
G04 WWW.FRITZING.ORG*
G04 DOUBLE SIDED*
G04 HOLES PLATED*
G04 CONTOUR ON CENTER OF CONTOUR VECTOR*
%ASAXBY*%
%FSLAX23Y23*%
%MOIN*%
%OFA0B0*%
%SFA1.0B1.0*%
%ADD10C,0.065278*%
%ADD11C,0.070000*%
%ADD12R,0.059055X0.055118*%
%ADD13R,0.001000X0.001000*%
%LNCOPPER1*%
G90*
G70*
G54D10*
X2188Y190D03*
X2288Y190D03*
X2388Y190D03*
X2488Y190D03*
X2588Y190D03*
X1728Y2090D03*
X1628Y2090D03*
X1528Y2090D03*
X1428Y2090D03*
X1328Y2090D03*
X1228Y2090D03*
X1128Y2090D03*
X1028Y2090D03*
X928Y2090D03*
X828Y2090D03*
X2588Y2090D03*
X2488Y2090D03*
X2388Y2090D03*
X2288Y2090D03*
X2188Y2090D03*
X2088Y2090D03*
X1988Y2090D03*
X1888Y2090D03*
X1288Y190D03*
X1188Y190D03*
X1388Y190D03*
X1488Y190D03*
X1588Y190D03*
X1688Y190D03*
X1788Y190D03*
X1888Y190D03*
X2088Y190D03*
G54D11*
X2988Y1190D03*
X3088Y1190D03*
X3188Y1190D03*
G54D12*
X2988Y590D03*
X2988Y509D03*
G54D13*
X2982Y1225D02*
X2992Y1225D01*
X3082Y1225D02*
X3092Y1225D01*
X3182Y1225D02*
X3192Y1225D01*
X2978Y1224D02*
X2996Y1224D01*
X3078Y1224D02*
X3096Y1224D01*
X3178Y1224D02*
X3196Y1224D01*
X2975Y1223D02*
X2999Y1223D01*
X3075Y1223D02*
X3099Y1223D01*
X3175Y1223D02*
X3199Y1223D01*
X2973Y1222D02*
X3001Y1222D01*
X3073Y1222D02*
X3101Y1222D01*
X3173Y1222D02*
X3201Y1222D01*
X2970Y1221D02*
X3003Y1221D01*
X3070Y1221D02*
X3103Y1221D01*
X3170Y1221D02*
X3203Y1221D01*
X2969Y1220D02*
X3005Y1220D01*
X3069Y1220D02*
X3105Y1220D01*
X3169Y1220D02*
X3205Y1220D01*
X2967Y1219D02*
X3007Y1219D01*
X3067Y1219D02*
X3107Y1219D01*
X3167Y1219D02*
X3207Y1219D01*
X2966Y1218D02*
X3008Y1218D01*
X3066Y1218D02*
X3108Y1218D01*
X3166Y1218D02*
X3208Y1218D01*
X2965Y1217D02*
X3009Y1217D01*
X3065Y1217D02*
X3109Y1217D01*
X3165Y1217D02*
X3209Y1217D01*
X2963Y1216D02*
X3010Y1216D01*
X3063Y1216D02*
X3110Y1216D01*
X3163Y1216D02*
X3210Y1216D01*
X2962Y1215D02*
X3011Y1215D01*
X3062Y1215D02*
X3111Y1215D01*
X3162Y1215D02*
X3211Y1215D01*
X2961Y1214D02*
X3012Y1214D01*
X3061Y1214D02*
X3112Y1214D01*
X3161Y1214D02*
X3212Y1214D01*
X2961Y1213D02*
X3013Y1213D01*
X3061Y1213D02*
X3113Y1213D01*
X3161Y1213D02*
X3213Y1213D01*
X2960Y1212D02*
X3014Y1212D01*
X3060Y1212D02*
X3114Y1212D01*
X3160Y1212D02*
X3214Y1212D01*
X2959Y1211D02*
X3015Y1211D01*
X3059Y1211D02*
X3115Y1211D01*
X3159Y1211D02*
X3215Y1211D01*
X2958Y1210D02*
X3015Y1210D01*
X3058Y1210D02*
X3115Y1210D01*
X3158Y1210D02*
X3215Y1210D01*
X2958Y1209D02*
X3016Y1209D01*
X3058Y1209D02*
X3116Y1209D01*
X3158Y1209D02*
X3216Y1209D01*
X2957Y1208D02*
X3017Y1208D01*
X3057Y1208D02*
X3117Y1208D01*
X3157Y1208D02*
X3217Y1208D01*
X2957Y1207D02*
X3017Y1207D01*
X3057Y1207D02*
X3117Y1207D01*
X3157Y1207D02*
X3217Y1207D01*
X2956Y1206D02*
X3018Y1206D01*
X3056Y1206D02*
X3118Y1206D01*
X3156Y1206D02*
X3218Y1206D01*
X2956Y1205D02*
X2982Y1205D01*
X2992Y1205D02*
X3018Y1205D01*
X3056Y1205D02*
X3082Y1205D01*
X3092Y1205D02*
X3118Y1205D01*
X3156Y1205D02*
X3182Y1205D01*
X3192Y1205D02*
X3218Y1205D01*
X2955Y1204D02*
X2980Y1204D01*
X2994Y1204D02*
X3019Y1204D01*
X3055Y1204D02*
X3080Y1204D01*
X3094Y1204D02*
X3119Y1204D01*
X3155Y1204D02*
X3180Y1204D01*
X3194Y1204D02*
X3219Y1204D01*
X2955Y1203D02*
X2978Y1203D01*
X2996Y1203D02*
X3019Y1203D01*
X3055Y1203D02*
X3078Y1203D01*
X3096Y1203D02*
X3119Y1203D01*
X3155Y1203D02*
X3178Y1203D01*
X3196Y1203D02*
X3219Y1203D01*
X2955Y1202D02*
X2977Y1202D01*
X2997Y1202D02*
X3019Y1202D01*
X3055Y1202D02*
X3077Y1202D01*
X3097Y1202D02*
X3119Y1202D01*
X3155Y1202D02*
X3177Y1202D01*
X3197Y1202D02*
X3219Y1202D01*
X2954Y1201D02*
X2976Y1201D01*
X2998Y1201D02*
X3020Y1201D01*
X3054Y1201D02*
X3076Y1201D01*
X3098Y1201D02*
X3120Y1201D01*
X3154Y1201D02*
X3176Y1201D01*
X3198Y1201D02*
X3220Y1201D01*
X2954Y1200D02*
X2975Y1200D01*
X2999Y1200D02*
X3020Y1200D01*
X3054Y1200D02*
X3075Y1200D01*
X3099Y1200D02*
X3120Y1200D01*
X3154Y1200D02*
X3175Y1200D01*
X3199Y1200D02*
X3220Y1200D01*
X2954Y1199D02*
X2974Y1199D01*
X3000Y1199D02*
X3020Y1199D01*
X3054Y1199D02*
X3074Y1199D01*
X3100Y1199D02*
X3120Y1199D01*
X3154Y1199D02*
X3174Y1199D01*
X3200Y1199D02*
X3220Y1199D01*
X2953Y1198D02*
X2973Y1198D01*
X3001Y1198D02*
X3020Y1198D01*
X3053Y1198D02*
X3073Y1198D01*
X3101Y1198D02*
X3120Y1198D01*
X3153Y1198D02*
X3173Y1198D01*
X3201Y1198D02*
X3220Y1198D01*
X2953Y1197D02*
X2973Y1197D01*
X3001Y1197D02*
X3021Y1197D01*
X3053Y1197D02*
X3073Y1197D01*
X3101Y1197D02*
X3121Y1197D01*
X3153Y1197D02*
X3173Y1197D01*
X3201Y1197D02*
X3221Y1197D01*
X2953Y1196D02*
X2972Y1196D01*
X3002Y1196D02*
X3021Y1196D01*
X3053Y1196D02*
X3072Y1196D01*
X3102Y1196D02*
X3121Y1196D01*
X3153Y1196D02*
X3172Y1196D01*
X3202Y1196D02*
X3221Y1196D01*
X2953Y1195D02*
X2972Y1195D01*
X3002Y1195D02*
X3021Y1195D01*
X3053Y1195D02*
X3072Y1195D01*
X3102Y1195D02*
X3121Y1195D01*
X3153Y1195D02*
X3172Y1195D01*
X3202Y1195D02*
X3221Y1195D01*
X2953Y1194D02*
X2972Y1194D01*
X3002Y1194D02*
X3021Y1194D01*
X3053Y1194D02*
X3072Y1194D01*
X3102Y1194D02*
X3121Y1194D01*
X3153Y1194D02*
X3172Y1194D01*
X3202Y1194D02*
X3221Y1194D01*
X2953Y1193D02*
X2972Y1193D01*
X3002Y1193D02*
X3021Y1193D01*
X3053Y1193D02*
X3072Y1193D01*
X3102Y1193D02*
X3121Y1193D01*
X3153Y1193D02*
X3172Y1193D01*
X3202Y1193D02*
X3221Y1193D01*
X2953Y1192D02*
X2972Y1192D01*
X3002Y1192D02*
X3021Y1192D01*
X3053Y1192D02*
X3072Y1192D01*
X3102Y1192D02*
X3121Y1192D01*
X3152Y1192D02*
X3172Y1192D01*
X3202Y1192D02*
X3221Y1192D01*
X2952Y1191D02*
X2971Y1191D01*
X3002Y1191D02*
X3021Y1191D01*
X3052Y1191D02*
X3071Y1191D01*
X3102Y1191D02*
X3121Y1191D01*
X3152Y1191D02*
X3171Y1191D01*
X3202Y1191D02*
X3221Y1191D01*
X2952Y1190D02*
X2971Y1190D01*
X3002Y1190D02*
X3021Y1190D01*
X3052Y1190D02*
X3071Y1190D01*
X3102Y1190D02*
X3121Y1190D01*
X3152Y1190D02*
X3171Y1190D01*
X3202Y1190D02*
X3221Y1190D01*
X2953Y1189D02*
X2972Y1189D01*
X3002Y1189D02*
X3021Y1189D01*
X3053Y1189D02*
X3072Y1189D01*
X3102Y1189D02*
X3121Y1189D01*
X3152Y1189D02*
X3172Y1189D01*
X3202Y1189D02*
X3221Y1189D01*
X2953Y1188D02*
X2972Y1188D01*
X3002Y1188D02*
X3021Y1188D01*
X3053Y1188D02*
X3072Y1188D01*
X3102Y1188D02*
X3121Y1188D01*
X3153Y1188D02*
X3172Y1188D01*
X3202Y1188D02*
X3221Y1188D01*
X2953Y1187D02*
X2972Y1187D01*
X3002Y1187D02*
X3021Y1187D01*
X3053Y1187D02*
X3072Y1187D01*
X3102Y1187D02*
X3121Y1187D01*
X3153Y1187D02*
X3172Y1187D01*
X3202Y1187D02*
X3221Y1187D01*
X2953Y1186D02*
X2972Y1186D01*
X3002Y1186D02*
X3021Y1186D01*
X3053Y1186D02*
X3072Y1186D01*
X3102Y1186D02*
X3121Y1186D01*
X3153Y1186D02*
X3172Y1186D01*
X3202Y1186D02*
X3221Y1186D01*
X2953Y1185D02*
X2972Y1185D01*
X3002Y1185D02*
X3021Y1185D01*
X3053Y1185D02*
X3072Y1185D01*
X3101Y1185D02*
X3121Y1185D01*
X3153Y1185D02*
X3172Y1185D01*
X3201Y1185D02*
X3221Y1185D01*
X2953Y1184D02*
X2973Y1184D01*
X3001Y1184D02*
X3021Y1184D01*
X3053Y1184D02*
X3073Y1184D01*
X3101Y1184D02*
X3121Y1184D01*
X3153Y1184D02*
X3173Y1184D01*
X3201Y1184D02*
X3221Y1184D01*
X2953Y1183D02*
X2973Y1183D01*
X3000Y1183D02*
X3020Y1183D01*
X3053Y1183D02*
X3073Y1183D01*
X3100Y1183D02*
X3120Y1183D01*
X3153Y1183D02*
X3173Y1183D01*
X3200Y1183D02*
X3220Y1183D01*
X2954Y1182D02*
X2974Y1182D01*
X3000Y1182D02*
X3020Y1182D01*
X3054Y1182D02*
X3074Y1182D01*
X3100Y1182D02*
X3120Y1182D01*
X3154Y1182D02*
X3174Y1182D01*
X3200Y1182D02*
X3220Y1182D01*
X2954Y1181D02*
X2975Y1181D01*
X2999Y1181D02*
X3020Y1181D01*
X3054Y1181D02*
X3075Y1181D01*
X3099Y1181D02*
X3120Y1181D01*
X3154Y1181D02*
X3175Y1181D01*
X3199Y1181D02*
X3220Y1181D01*
X2954Y1180D02*
X2976Y1180D01*
X2998Y1180D02*
X3020Y1180D01*
X3054Y1180D02*
X3076Y1180D01*
X3098Y1180D02*
X3120Y1180D01*
X3154Y1180D02*
X3176Y1180D01*
X3198Y1180D02*
X3220Y1180D01*
X2955Y1179D02*
X2977Y1179D01*
X2997Y1179D02*
X3019Y1179D01*
X3055Y1179D02*
X3077Y1179D01*
X3097Y1179D02*
X3119Y1179D01*
X3155Y1179D02*
X3177Y1179D01*
X3197Y1179D02*
X3219Y1179D01*
X2955Y1178D02*
X2978Y1178D01*
X2996Y1178D02*
X3019Y1178D01*
X3055Y1178D02*
X3078Y1178D01*
X3096Y1178D02*
X3119Y1178D01*
X3155Y1178D02*
X3178Y1178D01*
X3196Y1178D02*
X3219Y1178D01*
X2955Y1177D02*
X2980Y1177D01*
X2994Y1177D02*
X3018Y1177D01*
X3055Y1177D02*
X3080Y1177D01*
X3094Y1177D02*
X3118Y1177D01*
X3155Y1177D02*
X3180Y1177D01*
X3194Y1177D02*
X3218Y1177D01*
X2956Y1176D02*
X2983Y1176D01*
X2991Y1176D02*
X3018Y1176D01*
X3056Y1176D02*
X3083Y1176D01*
X3091Y1176D02*
X3118Y1176D01*
X3156Y1176D02*
X3183Y1176D01*
X3191Y1176D02*
X3218Y1176D01*
X2956Y1175D02*
X3018Y1175D01*
X3056Y1175D02*
X3118Y1175D01*
X3156Y1175D02*
X3218Y1175D01*
X2957Y1174D02*
X3017Y1174D01*
X3057Y1174D02*
X3117Y1174D01*
X3157Y1174D02*
X3217Y1174D01*
X2957Y1173D02*
X3016Y1173D01*
X3057Y1173D02*
X3116Y1173D01*
X3157Y1173D02*
X3216Y1173D01*
X2958Y1172D02*
X3016Y1172D01*
X3058Y1172D02*
X3116Y1172D01*
X3158Y1172D02*
X3216Y1172D01*
X2959Y1171D02*
X3015Y1171D01*
X3059Y1171D02*
X3115Y1171D01*
X3159Y1171D02*
X3215Y1171D01*
X2959Y1170D02*
X3015Y1170D01*
X3059Y1170D02*
X3115Y1170D01*
X3159Y1170D02*
X3215Y1170D01*
X2960Y1169D02*
X3014Y1169D01*
X3060Y1169D02*
X3114Y1169D01*
X3160Y1169D02*
X3214Y1169D01*
X2961Y1168D02*
X3013Y1168D01*
X3061Y1168D02*
X3113Y1168D01*
X3161Y1168D02*
X3213Y1168D01*
X2962Y1167D02*
X3012Y1167D01*
X3062Y1167D02*
X3112Y1167D01*
X3162Y1167D02*
X3212Y1167D01*
X2963Y1166D02*
X3011Y1166D01*
X3063Y1166D02*
X3111Y1166D01*
X3163Y1166D02*
X3211Y1166D01*
X2964Y1165D02*
X3010Y1165D01*
X3064Y1165D02*
X3110Y1165D01*
X3164Y1165D02*
X3210Y1165D01*
X2965Y1164D02*
X3009Y1164D01*
X3065Y1164D02*
X3109Y1164D01*
X3165Y1164D02*
X3209Y1164D01*
X2966Y1163D02*
X3008Y1163D01*
X3066Y1163D02*
X3108Y1163D01*
X3166Y1163D02*
X3208Y1163D01*
X2967Y1162D02*
X3006Y1162D01*
X3067Y1162D02*
X3106Y1162D01*
X3167Y1162D02*
X3206Y1162D01*
X2969Y1161D02*
X3005Y1161D01*
X3069Y1161D02*
X3105Y1161D01*
X3169Y1161D02*
X3205Y1161D01*
X2971Y1160D02*
X3003Y1160D01*
X3071Y1160D02*
X3103Y1160D01*
X3171Y1160D02*
X3203Y1160D01*
X2973Y1159D02*
X3001Y1159D01*
X3073Y1159D02*
X3101Y1159D01*
X3173Y1159D02*
X3201Y1159D01*
X2975Y1158D02*
X2999Y1158D01*
X3075Y1158D02*
X3099Y1158D01*
X3175Y1158D02*
X3199Y1158D01*
X2978Y1157D02*
X2996Y1157D01*
X3078Y1157D02*
X3096Y1157D01*
X3178Y1157D02*
X3196Y1157D01*
X2983Y1156D02*
X2991Y1156D01*
X3083Y1156D02*
X3091Y1156D01*
X3183Y1156D02*
X3191Y1156D01*
D02*
G04 End of Copper1*
M02*