; NON-PLATED HOLES START AT T1
; THROUGH (PLATED) HOLES START AT T100
M48
INCH
T100C0.040278
T101C0.030000
%
T100
X023877Y001901
X022876Y001901
X024877Y001901
X020877Y001901
X015277Y020901
X017876Y001901
X010277Y020901
X014277Y020901
X021877Y001901
X016877Y001901
X015877Y001901
X024877Y020901
X018877Y001901
X012277Y020901
X012877Y001901
X011277Y020901
X008276Y020901
X009277Y020901
X011877Y001901
X019877Y020901
X025877Y020901
X018877Y020901
X020877Y020901
X023877Y020901
X022876Y020901
X025877Y001901
X013277Y020901
X013877Y001901
X016277Y020901
X014877Y001901
X021877Y020901
X017276Y020901
T101
X030877Y011901
X029877Y011901
X031877Y011901
T00
M30
