G04 MADE WITH FRITZING*
G04 WWW.FRITZING.ORG*
G04 DOUBLE SIDED*
G04 HOLES PLATED*
G04 CONTOUR ON CENTER OF CONTOUR VECTOR*
%ASAXBY*%
%FSLAX23Y23*%
%MOIN*%
%OFA0B0*%
%SFA1.0B1.0*%
%ADD10C,0.075278*%
%ADD11R,0.001000X0.001000*%
%LNMASK0*%
G90*
G70*
G54D10*
X2188Y190D03*
X2288Y190D03*
X2388Y190D03*
X2488Y190D03*
X2588Y190D03*
X1728Y2090D03*
X1628Y2090D03*
X1528Y2090D03*
X1428Y2090D03*
X1328Y2090D03*
X1228Y2090D03*
X1128Y2090D03*
X1028Y2090D03*
X928Y2090D03*
X828Y2090D03*
X2588Y2090D03*
X2488Y2090D03*
X2388Y2090D03*
X2288Y2090D03*
X2188Y2090D03*
X2088Y2090D03*
X1988Y2090D03*
X1888Y2090D03*
X1288Y190D03*
X1188Y190D03*
X1388Y190D03*
X1488Y190D03*
X1588Y190D03*
X1688Y190D03*
X1788Y190D03*
X1888Y190D03*
X2088Y190D03*
G54D11*
X2981Y1230D02*
X2992Y1230D01*
X3081Y1230D02*
X3092Y1230D01*
X3181Y1230D02*
X3192Y1230D01*
X2977Y1229D02*
X2997Y1229D01*
X3077Y1229D02*
X3097Y1229D01*
X3177Y1229D02*
X3197Y1229D01*
X2973Y1228D02*
X3000Y1228D01*
X3073Y1228D02*
X3100Y1228D01*
X3173Y1228D02*
X3200Y1228D01*
X2971Y1227D02*
X3003Y1227D01*
X3071Y1227D02*
X3103Y1227D01*
X3171Y1227D02*
X3203Y1227D01*
X2969Y1226D02*
X3005Y1226D01*
X3069Y1226D02*
X3105Y1226D01*
X3169Y1226D02*
X3205Y1226D01*
X2967Y1225D02*
X3007Y1225D01*
X3067Y1225D02*
X3107Y1225D01*
X3167Y1225D02*
X3207Y1225D01*
X2966Y1224D02*
X3008Y1224D01*
X3066Y1224D02*
X3108Y1224D01*
X3166Y1224D02*
X3208Y1224D01*
X2964Y1223D02*
X3010Y1223D01*
X3064Y1223D02*
X3110Y1223D01*
X3164Y1223D02*
X3210Y1223D01*
X2963Y1222D02*
X3011Y1222D01*
X3063Y1222D02*
X3111Y1222D01*
X3163Y1222D02*
X3211Y1222D01*
X2962Y1221D02*
X3012Y1221D01*
X3062Y1221D02*
X3112Y1221D01*
X3162Y1221D02*
X3212Y1221D01*
X2960Y1220D02*
X3013Y1220D01*
X3060Y1220D02*
X3113Y1220D01*
X3160Y1220D02*
X3213Y1220D01*
X2959Y1219D02*
X3015Y1219D01*
X3059Y1219D02*
X3115Y1219D01*
X3159Y1219D02*
X3215Y1219D01*
X2958Y1218D02*
X3015Y1218D01*
X3058Y1218D02*
X3115Y1218D01*
X3158Y1218D02*
X3215Y1218D01*
X2957Y1217D02*
X3016Y1217D01*
X3057Y1217D02*
X3116Y1217D01*
X3157Y1217D02*
X3216Y1217D01*
X2957Y1216D02*
X3017Y1216D01*
X3057Y1216D02*
X3117Y1216D01*
X3157Y1216D02*
X3217Y1216D01*
X2956Y1215D02*
X3018Y1215D01*
X3056Y1215D02*
X3118Y1215D01*
X3156Y1215D02*
X3218Y1215D01*
X2955Y1214D02*
X3019Y1214D01*
X3055Y1214D02*
X3119Y1214D01*
X3155Y1214D02*
X3219Y1214D01*
X2954Y1213D02*
X3019Y1213D01*
X3054Y1213D02*
X3119Y1213D01*
X3154Y1213D02*
X3219Y1213D01*
X2954Y1212D02*
X3020Y1212D01*
X3054Y1212D02*
X3120Y1212D01*
X3154Y1212D02*
X3220Y1212D01*
X2953Y1211D02*
X3021Y1211D01*
X3053Y1211D02*
X3121Y1211D01*
X3153Y1211D02*
X3221Y1211D01*
X2953Y1210D02*
X3021Y1210D01*
X3053Y1210D02*
X3121Y1210D01*
X3153Y1210D02*
X3221Y1210D01*
X2952Y1209D02*
X3022Y1209D01*
X3052Y1209D02*
X3122Y1209D01*
X3152Y1209D02*
X3222Y1209D01*
X2951Y1208D02*
X3022Y1208D01*
X3051Y1208D02*
X3122Y1208D01*
X3151Y1208D02*
X3222Y1208D01*
X2951Y1207D02*
X3023Y1207D01*
X3051Y1207D02*
X3123Y1207D01*
X3151Y1207D02*
X3223Y1207D01*
X2951Y1206D02*
X3023Y1206D01*
X3051Y1206D02*
X3123Y1206D01*
X3151Y1206D02*
X3223Y1206D01*
X2950Y1205D02*
X3024Y1205D01*
X3050Y1205D02*
X3124Y1205D01*
X3150Y1205D02*
X3224Y1205D01*
X2950Y1204D02*
X3024Y1204D01*
X3050Y1204D02*
X3124Y1204D01*
X3150Y1204D02*
X3224Y1204D01*
X2949Y1203D02*
X3024Y1203D01*
X3049Y1203D02*
X3124Y1203D01*
X3149Y1203D02*
X3224Y1203D01*
X2949Y1202D02*
X3025Y1202D01*
X3049Y1202D02*
X3125Y1202D01*
X3149Y1202D02*
X3225Y1202D01*
X2949Y1201D02*
X3025Y1201D01*
X3049Y1201D02*
X3125Y1201D01*
X3149Y1201D02*
X3225Y1201D01*
X2949Y1200D02*
X3025Y1200D01*
X3049Y1200D02*
X3125Y1200D01*
X3149Y1200D02*
X3225Y1200D01*
X2948Y1199D02*
X3025Y1199D01*
X3048Y1199D02*
X3125Y1199D01*
X3148Y1199D02*
X3225Y1199D01*
X2948Y1198D02*
X3026Y1198D01*
X3048Y1198D02*
X3126Y1198D01*
X3148Y1198D02*
X3226Y1198D01*
X2948Y1197D02*
X3026Y1197D01*
X3048Y1197D02*
X3126Y1197D01*
X3148Y1197D02*
X3226Y1197D01*
X2948Y1196D02*
X3026Y1196D01*
X3048Y1196D02*
X3126Y1196D01*
X3148Y1196D02*
X3226Y1196D01*
X2948Y1195D02*
X3026Y1195D01*
X3048Y1195D02*
X3126Y1195D01*
X3148Y1195D02*
X3226Y1195D01*
X2948Y1194D02*
X3026Y1194D01*
X3048Y1194D02*
X3126Y1194D01*
X3148Y1194D02*
X3226Y1194D01*
X2948Y1193D02*
X3026Y1193D01*
X3048Y1193D02*
X3126Y1193D01*
X3148Y1193D02*
X3226Y1193D01*
X2948Y1192D02*
X3026Y1192D01*
X3048Y1192D02*
X3126Y1192D01*
X3147Y1192D02*
X3226Y1192D01*
X2947Y1191D02*
X3026Y1191D01*
X3047Y1191D02*
X3126Y1191D01*
X3147Y1191D02*
X3226Y1191D01*
X2947Y1190D02*
X3026Y1190D01*
X3047Y1190D02*
X3126Y1190D01*
X3147Y1190D02*
X3226Y1190D01*
X2948Y1189D02*
X3026Y1189D01*
X3048Y1189D02*
X3126Y1189D01*
X3147Y1189D02*
X3226Y1189D01*
X2948Y1188D02*
X3026Y1188D01*
X3048Y1188D02*
X3126Y1188D01*
X3148Y1188D02*
X3226Y1188D01*
X2948Y1187D02*
X3026Y1187D01*
X3048Y1187D02*
X3126Y1187D01*
X3148Y1187D02*
X3226Y1187D01*
X2948Y1186D02*
X3026Y1186D01*
X3048Y1186D02*
X3126Y1186D01*
X3148Y1186D02*
X3226Y1186D01*
X2948Y1185D02*
X3026Y1185D01*
X3048Y1185D02*
X3126Y1185D01*
X3148Y1185D02*
X3226Y1185D01*
X2948Y1184D02*
X3026Y1184D01*
X3048Y1184D02*
X3126Y1184D01*
X3148Y1184D02*
X3226Y1184D01*
X2948Y1183D02*
X3026Y1183D01*
X3048Y1183D02*
X3126Y1183D01*
X3148Y1183D02*
X3226Y1183D01*
X2948Y1182D02*
X3025Y1182D01*
X3048Y1182D02*
X3125Y1182D01*
X3148Y1182D02*
X3225Y1182D01*
X2949Y1181D02*
X3025Y1181D01*
X3049Y1181D02*
X3125Y1181D01*
X3149Y1181D02*
X3225Y1181D01*
X2949Y1180D02*
X3025Y1180D01*
X3049Y1180D02*
X3125Y1180D01*
X3149Y1180D02*
X3225Y1180D01*
X2949Y1179D02*
X3025Y1179D01*
X3049Y1179D02*
X3125Y1179D01*
X3149Y1179D02*
X3225Y1179D01*
X2950Y1178D02*
X3024Y1178D01*
X3050Y1178D02*
X3124Y1178D01*
X3149Y1178D02*
X3224Y1178D01*
X2950Y1177D02*
X3024Y1177D01*
X3050Y1177D02*
X3124Y1177D01*
X3150Y1177D02*
X3224Y1177D01*
X2950Y1176D02*
X3024Y1176D01*
X3050Y1176D02*
X3124Y1176D01*
X3150Y1176D02*
X3224Y1176D01*
X2951Y1175D02*
X3023Y1175D01*
X3051Y1175D02*
X3123Y1175D01*
X3151Y1175D02*
X3223Y1175D01*
X2951Y1174D02*
X3023Y1174D01*
X3051Y1174D02*
X3123Y1174D01*
X3151Y1174D02*
X3223Y1174D01*
X2952Y1173D02*
X3022Y1173D01*
X3052Y1173D02*
X3122Y1173D01*
X3152Y1173D02*
X3222Y1173D01*
X2952Y1172D02*
X3022Y1172D01*
X3052Y1172D02*
X3122Y1172D01*
X3152Y1172D02*
X3222Y1172D01*
X2953Y1171D02*
X3021Y1171D01*
X3053Y1171D02*
X3121Y1171D01*
X3153Y1171D02*
X3221Y1171D01*
X2953Y1170D02*
X3021Y1170D01*
X3053Y1170D02*
X3121Y1170D01*
X3153Y1170D02*
X3221Y1170D01*
X2954Y1169D02*
X3020Y1169D01*
X3054Y1169D02*
X3120Y1169D01*
X3154Y1169D02*
X3220Y1169D01*
X2955Y1168D02*
X3019Y1168D01*
X3054Y1168D02*
X3119Y1168D01*
X3154Y1168D02*
X3219Y1168D01*
X2955Y1167D02*
X3019Y1167D01*
X3055Y1167D02*
X3119Y1167D01*
X3155Y1167D02*
X3219Y1167D01*
X2956Y1166D02*
X3018Y1166D01*
X3056Y1166D02*
X3118Y1166D01*
X3156Y1166D02*
X3218Y1166D01*
X2957Y1165D02*
X3017Y1165D01*
X3057Y1165D02*
X3117Y1165D01*
X3157Y1165D02*
X3217Y1165D01*
X2958Y1164D02*
X3016Y1164D01*
X3058Y1164D02*
X3116Y1164D01*
X3158Y1164D02*
X3216Y1164D01*
X2958Y1163D02*
X3015Y1163D01*
X3058Y1163D02*
X3115Y1163D01*
X3158Y1163D02*
X3215Y1163D01*
X2959Y1162D02*
X3014Y1162D01*
X3059Y1162D02*
X3114Y1162D01*
X3159Y1162D02*
X3214Y1162D01*
X2961Y1161D02*
X3013Y1161D01*
X3061Y1161D02*
X3113Y1161D01*
X3161Y1161D02*
X3213Y1161D01*
X2962Y1160D02*
X3012Y1160D01*
X3062Y1160D02*
X3112Y1160D01*
X3162Y1160D02*
X3212Y1160D01*
X2963Y1159D02*
X3011Y1159D01*
X3063Y1159D02*
X3111Y1159D01*
X3163Y1159D02*
X3211Y1159D01*
X2964Y1158D02*
X3009Y1158D01*
X3064Y1158D02*
X3109Y1158D01*
X3164Y1158D02*
X3209Y1158D01*
X2966Y1157D02*
X3008Y1157D01*
X3066Y1157D02*
X3108Y1157D01*
X3166Y1157D02*
X3208Y1157D01*
X2967Y1156D02*
X3006Y1156D01*
X3067Y1156D02*
X3106Y1156D01*
X3167Y1156D02*
X3206Y1156D01*
X2969Y1155D02*
X3005Y1155D01*
X3069Y1155D02*
X3105Y1155D01*
X3169Y1155D02*
X3205Y1155D01*
X2971Y1154D02*
X3003Y1154D01*
X3071Y1154D02*
X3103Y1154D01*
X3171Y1154D02*
X3203Y1154D01*
X2974Y1153D02*
X3000Y1153D01*
X3074Y1153D02*
X3100Y1153D01*
X3174Y1153D02*
X3200Y1153D01*
X2977Y1152D02*
X2997Y1152D01*
X3077Y1152D02*
X3097Y1152D01*
X3177Y1152D02*
X3197Y1152D01*
X2982Y1151D02*
X2992Y1151D01*
X3082Y1151D02*
X3092Y1151D01*
X3182Y1151D02*
X3192Y1151D01*
D02*
G04 End of Mask0*
M02*